<svg width="13" height="20" viewBox="0 0 13 20" fill="none" xmlns="http://www.w3.org/2000/svg">
<path fill-rule="evenodd" clip-rule="evenodd" d="M6.5 0C2.91005 0 0 2.91005 0 6.5C0 10.0899 2.91005 13 6.5 13C10.0899 13 13 10.0899 13 6.5C13 2.91005 10.0899 0 6.5 0ZM6.5 3.9C5.81044 3.9 5.14912 4.17393 4.66152 4.66152C4.17393 5.14912 3.9 5.81044 3.9 6.5C3.9 7.18956 4.17393 7.85088 4.66152 8.33848C5.14912 8.82607 5.81044 9.1 6.5 9.1C7.18956 9.1 7.85088 8.82607 8.33848 8.33848C8.82607 7.85088 9.1 7.18956 9.1 6.5C9.1 5.81044 8.82607 5.14912 8.33848 4.66152C7.85088 4.17393 7.18956 3.9 6.5 3.9Z" fill="#008000"/>
<rect x="5" y="9" width="2" height="11" fill="#008000"/>
</svg>
